<svg width="24" height="24" viewBox="0 0 24 24" fill="none" xmlns="http://www.w3.org/2000/svg">
<g id="icon/copy">
<path id="Rectangle 93 (Stroke)" fill-rule="evenodd" clip-rule="evenodd" d="M13 10H7C6.17157 10 6 10.1716 6 11V17C6 17.8284 6.17157 18 7 18H13C13.8284 18 14 17.8284 14 17V11C14 10.1716 13.8284 10 13 10ZM7 8C5.34315 8 4 9.34315 4 11V17C4 18.6569 5.34315 20 7 20H13C14.6569 20 16 18.6569 16 17V11C16 9.34315 14.6569 8 13 8H7Z" fill="white"/>
<path id="Vector 3 (Stroke)" fill-rule="evenodd" clip-rule="evenodd" d="M8 5C8 4.44772 8.44772 4 9 4H15C17.7614 4 20 6.23858 20 9V15C20 15.5523 19.5523 16 19 16C18.4477 16 18 15.5523 18 15V9C18 7.34315 16.6569 6 15 6H9C8.44772 6 8 5.55228 8 5Z" fill="white"/>
</g>
</svg>
