<svg width="24" height="24" viewBox="0 0 24 24" fill="none" xmlns="http://www.w3.org/2000/svg">
<path fill-rule="evenodd" clip-rule="evenodd" d="M18.2405 11.1269C18.0703 9.9107 17.5472 8.76374 16.7267 7.83305C15.7119 6.68206 14.3121 5.94088 12.7898 5.74857C11.2674 5.55625 9.72724 5.92602 8.45814 6.78849C7.69384 7.30791 7.05948 7.98454 6.59241 8.76528C6.41733 9.05794 6.26576 9.36523 6.13965 9.68435C6.13009 9.70855 6.11958 9.73222 6.10818 9.75532C6.09618 9.77963 6.08319 9.80331 6.06928 9.82629C5.87554 10.1464 5.50335 10.3321 5.13375 10.2372C4.7124 10.129 4.4548 9.69786 4.6045 9.28942C4.80078 8.7539 5.05385 8.24351 5.35796 7.76642C5.92895 6.87066 6.67987 6.09232 7.57268 5.48557C9.15905 4.40748 11.0843 3.94527 12.9872 4.18567C14.8901 4.42606 16.6399 5.35253 17.9083 6.79127C18.9586 7.98258 19.6191 9.45727 19.8152 11.0181C19.8234 11.0832 19.8307 11.1484 19.8373 11.2138C19.8807 11.6466 19.524 12.0002 19.089 12.0002C18.7074 12.0002 18.3931 11.7277 18.285 11.3695C18.2773 11.3438 18.2706 11.3176 18.265 11.2911C18.2599 11.2667 18.2557 11.2421 18.2525 11.2172M18.2405 11.1269C18.2446 11.1561 18.2485 11.1853 18.2521 11.2145L18.2405 11.1269Z" fill="white"/>
<path fill-rule="evenodd" clip-rule="evenodd" d="M19.7961 11.4163C19.6835 11.8365 19.2516 12.0859 18.8314 11.9733L15.0273 10.954C14.6071 10.8414 14.3578 10.4095 14.4703 9.98927C14.5829 9.56908 15.0148 9.31972 15.435 9.43231L19.2392 10.4516C19.6593 10.5642 19.9087 10.9961 19.7961 11.4163Z" fill="white"/>
<path fill-rule="evenodd" clip-rule="evenodd" d="M5.75949 12.8733C5.92967 14.0895 6.45281 15.2365 7.27333 16.1672C8.28806 17.3182 9.68791 18.0594 11.2102 18.2517C12.7326 18.444 14.2728 18.0742 15.5419 17.2118C16.3062 16.6923 16.9405 16.0157 17.4076 15.235C17.5827 14.9423 17.7342 14.635 17.8603 14.3159C17.8699 14.2917 17.8804 14.268 17.8918 14.2449C17.9038 14.2206 17.9168 14.1969 17.9307 14.174C18.1245 13.8538 18.4966 13.6681 18.8663 13.763C19.2876 13.8712 19.5452 14.3024 19.3955 14.7108C19.1992 15.2463 18.9461 15.7567 18.642 16.2338C18.071 17.1296 17.3201 17.9079 16.4273 18.5147C14.841 19.5928 12.9157 20.055 11.0128 19.8146C9.10989 19.5742 7.36008 18.6477 6.09166 17.209C5.04138 16.0177 4.38094 14.543 4.18482 12.9821C4.17665 12.9171 4.16927 12.8518 4.16272 12.7865C4.11929 12.3536 4.47603 12.0001 4.91104 12.0001C5.29264 12.0001 5.60695 12.2725 5.71499 12.6307C5.72275 12.6565 5.72944 12.6826 5.73502 12.7092C5.74014 12.7335 5.74432 12.7582 5.74752 12.7831M5.75949 12.8733C5.75541 12.8442 5.75153 12.815 5.74786 12.7857L5.75949 12.8733Z" fill="white"/>
<path fill-rule="evenodd" clip-rule="evenodd" d="M4.20385 12.5839C4.31644 12.1638 4.74835 11.9144 5.16854 12.027L8.97266 13.0463C9.39285 13.1589 9.64221 13.5908 9.52962 14.011C9.41703 14.4312 8.98513 14.6805 8.56493 14.5679L4.76081 13.5486C4.34062 13.436 4.09126 13.0041 4.20385 12.5839Z" fill="white"/>
</svg>
