<svg width="24" height="24" viewBox="0 0 24 24" fill="none" xmlns="http://www.w3.org/2000/svg">
<g id="icon/x">
<path id="Line 40 (Stroke)" fill-rule="evenodd" clip-rule="evenodd" d="M6.6967 6.69673C7.08723 6.30621 7.72039 6.30621 8.11092 6.69673L17.3033 15.8891C17.6938 16.2796 17.6938 16.9128 17.3033 17.3033C16.9128 17.6939 16.2796 17.6939 15.8891 17.3033L6.6967 8.11094C6.30618 7.72042 6.30618 7.08726 6.6967 6.69673Z" fill="white"/>
<path id="Line 41 (Stroke)" fill-rule="evenodd" clip-rule="evenodd" d="M17.3033 6.6967C17.6939 7.08723 17.6939 7.72039 17.3033 8.11092L8.11094 17.3033C7.72042 17.6938 7.08725 17.6938 6.69673 17.3033C6.3062 16.9128 6.3062 16.2796 6.69673 15.8891L15.8891 6.6967C16.2796 6.30618 16.9128 6.30618 17.3033 6.6967Z" fill="white"/>
</g>
</svg>
